<svg xmlns="http://www.w3.org/2000/svg" xml:space="preserve" viewBox="0 0 32 32"><path d="M24.031 11.578c.244-.352.467-.717.692-1.083.207-.342.41-.686.592-1.044.356-.7.663-1.442.872-2.201.057-.209.125-.43.117-.649-.012-.287-.172-.635-.448-.768a1.71 1.71 0 0 0-.6-.162 2.705 2.705 0 0 0-.336-.02c-.314 0-.627.046-.937.094-.727.111-1.437.301-2.124.561-.389.147-.741.346-1.102.547-.34.188-.682.371-1.005.59-.352.238-.685.5-1.008.775a13.152 13.152 0 0 0-.415-1.727c-.25-.774-.512-1.546-.766-2.318a22.312 22.312 0 0 0-.399-1.122l-.106-.276c-.035-.086-.072-.182-.109-.262-.045-.094-.092-.139-.166-.234-.142-.181-.408-.279-.637-.279-.346 0-.612.201-.801.473-.101.147-.184.307-.275.459-.1.172-.205.342-.309.51-.199.321-.364.657-.536.993-.18.354-.358.707-.53 1.065a8.774 8.774 0 0 0-.473 1.27c-.117.385-.215.774-.287 1.171-.03.159-.044.322-.059.484-.061-.067-.116-.139-.178-.205a5.13 5.13 0 0 0-1.024-.833c-.326-.201-.682-.367-1.026-.536-.776-.378-1.608-.607-2.455-.769-.375-.072-.756-.119-1.135-.178a2.624 2.624 0 0 0-.404-.042.977.977 0 0 0-.257.031c-.242.062-.483.222-.592.455-.131.274-.131.502-.07.791.015.077.046.155.076.229.221.586.444 1.175.688 1.753.117.278.242.551.381.817.137.258.305.494.473.733.385.547.772 1.096 1.225 1.589.328.358.707.655 1.098.944l.151.112c-.837.019-1.672.057-2.503.164-.244.031-.442.076-.622.258-.015.015-.021.037-.035.053a.948.948 0 0 0-.623.866c-.027.868-.066 1.743-.033 2.611.012.281.037.563.051.846.016.348.01.696.031 1.044a.98.98 0 0 0 .185.503c.013.032.039.056.056.086.01.011.014.026.024.036.15.235.399.405.69.398.204-.006.409-.014.613-.022.048.896.122 1.785.268 2.671.116.693.288 1.373.439 2.057l-.262-.004a.827.827 0 0 0-.665.355c-.053.005-.106-.003-.158.011a.897.897 0 0 0-.532.408c-.131.223-.129.438-.09.684.072.449.131.901.217 1.347.084.448.293.833.571 1.186.225.285.534.549.846.725.188.106.389.188.59.258.252.086.528.098.792.115.797.059 1.605.004 2.404-.01a242.918 242.918 0 0 1 4.865-.029c.371.002.743.002 1.114-.014.375-.014.747-.043 1.12-.064.397-.023.792-.053 1.188-.067.174-.006.35-.004.524-.004.203.002.409.004.614-.008.395-.021.801-.055 1.169-.203a3.636 3.636 0 0 0 1.114-.676c.19-.174.346-.401.485-.62.139-.213.252-.459.326-.702.156-.514.149-1.067.16-1.599a.744.744 0 0 0-.102-.374c.001-.017.01-.03.01-.047 0-.458-.386-.866-.851-.866h-.016c-.275.006-.551.01-.826.015.087-.32.184-.638.262-.96.092-.367.158-.741.223-1.114.142-.83.283-1.659.431-2.489.21.026.421.047.631.034a.999.999 0 0 0 .426-.136c.372-.101.667-.43.658-.831-.027-1.419.023-2.838 0-4.257 0-.014-.008-.026-.009-.041a.857.857 0 0 0 .166-.481.874.874 0 0 0-.254-.614c-.174-.174-.375-.234-.614-.254-.42-.037-.84-.088-1.263-.1-.379-.012-.756-.021-1.135-.031l-.209-.003c.312-.246.613-.497.894-.783.319-.323.587-.692.849-1.066zm-9.546-3.244c.116-.613.272-1.228.493-1.812.257-.544.557-1.064.826-1.602.063-.125.133-.245.205-.364.189.548.362 1.102.544 1.652.285.865.543 1.758.675 2.662.082.741.098 1.502.015 2.243-.111.759-.272 1.507-.566 2.216l-.001.01c-.469-.008-.938-.017-1.407-.028-.16-.455-.313-.912-.458-1.37a9.144 9.144 0 0 1-.306-1.181 11.18 11.18 0 0 1-.02-2.426zm-5.153 2.237c-.28-.373-.557-.751-.816-1.141-.123-.188-.223-.395-.323-.596a14.89 14.89 0 0 1-.253-.543c-.085-.21-.168-.421-.251-.632.657.12 1.305.276 1.939.509.539.235 1.074.499 1.552.842.54.451.991 1.021 1.427 1.573.108.144.211.29.3.448.022.177.047.355.086.529.132.584.305 1.158.49 1.729-.092 0-.184-.003-.275-.003-.191 0-.383.003-.574.004-.048-.235-.18-.451-.403-.559-.291-.141-.584-.277-.864-.44a7.352 7.352 0 0 1-.598-.395c-.205-.145-.411-.288-.611-.438a6.082 6.082 0 0 1-.826-.887zm13.771 15.862c-.005.159-.002.318-.017.476-.02.102-.044.202-.078.301a2.982 2.982 0 0 1-.215.377 1.71 1.71 0 0 1-.138.144 3.454 3.454 0 0 1-.44.238 2.91 2.91 0 0 1-.451.12c-.328.034-.659.034-.988.037-.375.006-.749.025-1.124.055-.772.062-1.544.119-2.318.151-.809.031-1.622.01-2.431.006-.774-.002-1.548.002-2.322.012-.964.011-1.938.041-2.898-.07a2.063 2.063 0 0 1-.293-.075 2.852 2.852 0 0 1-.325-.191 3.021 3.021 0 0 1-.296-.292 2.43 2.43 0 0 1-.115-.198 2.892 2.892 0 0 1-.113-.487c-.021-.161-.045-.322-.067-.483 1.589-.014 3.177-.073 4.768-.082h.725c.606.002 1.212.004 1.818-.021.794-.031 1.587-.062 2.381-.084.946-.025 1.9-.031 2.848.004.45.016.901.031 1.352.045.244.005.491.013.737.017zm.049-11.235c.218.004.437.028.656.038.019.65.044 1.299.051 1.949.003.403.001.807-.002 1.21a40.844 40.844 0 0 0-1.786-.026c-.465.002-.932-.02-1.399-.02l-.477-.001-1.153.003a.829.829 0 0 0-.819.819c0 .442.373.823.819.817.534-.006 1.065-.016 1.599-.02.479-.004.954.035 1.431.066l.109.005c-.111.703-.214 1.407-.346 2.106-.068.367-.145.733-.225 1.098-.08.358-.186.709-.262 1.065a.93.93 0 0 0 .016.427l-1.044.019c.02-.044.052-.081.063-.13.094-.428.209-.85.303-1.276.135-.625.231-1.251.317-1.884.027-.205-.106-.449-.242-.586a.831.831 0 0 0-1.174 0c-.17.17-.215.356-.242.586l-.076.626c-.115.708-.239 1.418-.462 2.099a.756.756 0 0 0 .071.598c-1.499.039-2.997.128-4.5.123-.983-.004-1.966-.008-2.949.006-.485.007-.969 0-1.453-.007-.001-.061.006-.122-.008-.183-.102-.428-.184-.86-.281-1.29a17.448 17.448 0 0 1-.267-1.407c-.081-.639-.096-1.287-.121-1.929.687-.012 1.373-.062 2.062-.045.358.008.715.002 1.073.008.311.004.625.026.936.035.678.023 1.354-.033 2.033-.041a.863.863 0 0 0 .854-.854c0-.442-.373-.856-.826-.856h-.028c-.326.014-.655.043-.981.061-.34.018-.678.014-1.02.014-.67.002-1.341-.002-2.011-.008-.317-.002-.635.027-.952.045-.373.021-.747.033-1.12.031-.485-.004-.97.005-1.455.011.001-.129-.001-.257-.003-.385-.002-.283-.029-.563-.037-.846-.02-.695.02-1.395.054-2.092a30.8 30.8 0 0 1 2.25-.197c.881-.043 1.767-.041 2.648-.045 1.722-.008 3.444.049 5.166.074.575.008 1.149.049 1.722.084.297.02.596.047.897.051.152.004.305.004.457.002.152 0 .305 0 .457.002.559.007 1.118.038 1.677.05zm-1.746-3.079c-.328.24-.662.469-1.006.687a3.951 3.951 0 0 1-.518.285c-.202.09-.402.18-.594.289-.152-.006-.304-.008-.455-.013-.159-.005-.317-.004-.474-.004.202-.621.364-1.248.462-1.899.06-.404.085-.803.09-1.209.462-.456.927-.904 1.43-1.318.553-.406 1.173-.731 1.797-1.015.391-.15.784-.271 1.196-.355.225-.045.446-.105.67-.147.168-.031.336-.056.504-.081-.079.241-.172.478-.266.711a14.121 14.121 0 0 1-.849 1.586 21.518 21.518 0 0 1-1.019 1.531 7.442 7.442 0 0 1-.968.952z" style="fill:#2b402e"/></svg>