<svg xmlns="http://www.w3.org/2000/svg" xml:space="preserve" viewBox="0 0 512 512" fill="#2b402e"><path d="M181.173 256c-41.28 0-74.667 33.387-74.667 74.667s33.387 74.667 74.667 74.667 74.667-33.387 74.667-74.667c0-41.174-33.387-74.56-74.667-74.667zm0 128c-29.44 0-53.333-23.893-53.333-53.333s23.893-53.333 53.333-53.333 53.333 23.893 53.333 53.333S210.613 384 181.173 384zM406.453 64c-24.533-.107-44.373 20.693-42.667 45.547 1.387 21.013 18.453 38.08 39.467 39.68 24.96 1.813 45.76-17.92 45.76-42.453v-.107c0-23.467-18.986-42.56-42.56-42.667zm21.334 42.667c-.107 9.28-6.08 17.813-14.933 20.373-14.72 4.373-28.053-6.72-27.733-20.907.213-10.987 9.067-20.16 20.053-20.8 12.373-.747 22.613 8.96 22.613 21.227v.107z"/><path d="M361.867 285.013c.747-2.773.32-5.653-1.067-8.107l-42.987-73.92c-2.987-5.013-9.387-6.827-14.507-3.947l-27.413 15.68a129.698 129.698 0 0 0-41.173-23.893v-30.933c0-5.867-4.8-10.667-10.667-10.667H138.72c-5.867 0-10.667 4.8-10.667 10.667v30.933a129.04 129.04 0 0 0-41.28 23.893l-27.52-15.68c-5.12-2.88-11.52-1.173-14.507 3.947l-43.093 73.92a10.649 10.649 0 0 0 3.84 14.613L32.8 307.2a145.02 145.02 0 0 0 0 47.04L5.493 369.813c-5.12 2.88-6.827 9.493-3.947 14.613v.107l42.987 73.92c2.987 5.013 9.387 6.827 14.507 3.947l27.627-15.787c13.547 11.093 26.453 18.56 41.28 23.787v30.933c0 5.867 4.8 10.667 10.667 10.667h85.333c5.867 0 10.667-4.8 10.667-10.667V470.4a129.698 129.698 0 0 0 41.173-23.893l27.413 15.68c5.12 2.88 11.52 1.173 14.507-3.947l42.987-73.92a10.649 10.649 0 0 0-3.84-14.613l-27.2-15.573a144.365 144.365 0 0 0 0-46.933l27.2-15.573c2.453-1.495 4.266-3.841 5.013-6.615zm-49.494 7.467c-4.053 2.347-6.08 6.933-5.12 11.52 3.84 17.6 3.84 35.947 0 53.547a10.746 10.746 0 0 0 5.12 11.52L336.8 383.04l-32.32 55.467-24.747-14.187c-4.053-2.24-9.067-1.707-12.48 1.387-15.787 14.08-29.227 21.867-46.4 26.773-4.587 1.28-7.787 5.44-7.68 10.24v27.947h-65.067v-28.053c.96-4.8-2.24-8.96-6.827-10.24-17.387-4.907-30.827-12.693-46.507-26.773-3.413-3.093-8.427-3.627-12.373-1.387L57.547 438.4l-32.213-55.467 24.533-13.973c4.053-2.347 6.08-6.933 5.12-11.52-3.84-17.6-3.84-35.84 0-53.547a10.746 10.746 0 0 0-5.12-11.52L25.333 278.4l32.32-55.467 24.853 14.187c3.947 2.24 8.96 1.707 12.373-1.387 15.68-14.08 29.12-21.76 46.507-26.773 4.587-1.28 7.787-5.547 7.893-10.24v-28.053h62.933v28.16c.96 4.8 4.053 8.96 8.64 10.24 17.28 4.907 30.72 12.693 46.4 26.773 3.413 3.093 8.427 3.627 12.373 1.28l24.853-14.187 32.213 55.467-24.318 14.08zM506.293 126.933l-14.613-8.427c.64-3.947.96-7.893.96-11.84s-.32-7.893-.96-11.84l14.827-8.427c5.12-2.88 6.827-9.493 3.947-14.507v-.107l-21.547-37.013a10.596 10.596 0 0 0-14.4-3.947l-15.893 8.747c-6.613-4.907-13.867-8.853-21.44-11.947v-16.96C437.067 4.8 426.4 0 426.4 0h-42.667s-10.667 4.8-11.627 10.667v17.067c-6.187 2.987-12.907 6.933-18.987 11.733l-14.507-8.533a10.649 10.649 0 0 0-14.613 3.84l-21.333 37.013c-2.987 5.12-1.173 11.627 3.947 14.613h.107l14.827 8.533c-.533 3.84-.853 7.787-.853 11.733s.32 7.893.853 11.84l-14.827 8.427c-5.12 2.88-6.827 9.493-3.947 14.507v.107l21.44 37.013c1.387 2.453 3.733 4.267 6.507 4.907 2.773.747 5.653.32 8.107-1.173l14.187-8.427c6.08 4.8 12.8 8.747 20.053 11.733v17.067c-.107 5.867 10.56 10.56 10.56 10.56h42.667s10.667-4.693 9.707-10.56V185.6c8.64-3.093 15.787-7.04 22.4-11.947l15.467 8.64c5.013 2.88 11.52 1.173 14.4-3.84l21.653-37.013c3.199-4.907 1.492-11.52-3.628-14.507zm-32-46.826c-3.947 2.347-5.973 7.147-4.907 11.733 2.453 9.707 2.347 19.84-.107 29.547-1.067 4.587.96 9.387 5.013 11.733l11.947 6.827-10.987 18.667-12.693-7.147c-4.053-2.24-9.173-1.707-12.587 1.493-6.507 6.08-16.533 11.733-26.88 14.933-4.48 1.387-7.467 5.547-7.36 10.133V192h-22.4v-13.76c.96-4.693-2.027-8.747-6.507-10.133-9.493-3.093-18.133-8.107-25.387-14.933-3.52-3.307-8.747-3.84-12.8-1.387l-11.413 6.827-10.667-18.347 12.053-6.933c4.16-2.347 6.187-7.147 5.12-11.733-1.173-4.8-1.813-9.813-1.813-14.827 0-5.013.64-9.92 1.707-14.827 1.067-4.587-.96-9.387-5.12-11.733l-12.16-6.933 10.56-18.453 11.84 6.933c4.053 2.347 9.28 1.813 12.693-1.493 7.253-6.827 15.893-11.84 25.387-14.933 4.48-1.387 7.467-5.547 7.573-10.133V21.333h20.267v13.76c.96 4.693 4.053 8.747 8.427 10.133 10.453 3.307 20.48 8.96 26.88 14.933 3.413 3.2 8.427 3.84 12.48 1.6l13.013-7.253 10.88 18.667-12.052 6.934z"/></svg>